{
	"asset":{
		"generator":"Khronos glTF Blender I/O v3.6.28",
		"version":"2.0"
	},
	"extensionsUsed":[
		"KHR_materials_specular",
		"KHR_materials_ior"
	],
	"scene":0,
	"scenes":[
		{
			"name":"Scene",
			"nodes":[
				0
			]
		}
	],
	"nodes":[
		{
			"mesh":0,
			"name":"book2.001",
			"rotation":[
				0.9390373826026917,
				0,
				0.34381502866744995,
				3.768725775898929e-07
			],
			"scale":[
				5.87421178817749,
				5.87421178817749,
				6.315191745758057
			],
			"translation":[
				2.959958076477051,
				1.106736183166504,
				-16.719663619995117
			]
		}
	],
	"materials":[
		{
			"doubleSided":true,
			"extensions":{
				"KHR_materials_specular":{
					"specularColorTexture":{
						"index":0
					}
				},
				"KHR_materials_ior":{
					"ior":1.4500000476837158
				}
			},
			"name":"book2",
			"normalTexture":{
				"index":1
			},
			"pbrMetallicRoughness":{
				"baseColorTexture":{
					"index":2
				},
				"metallicRoughnessTexture":{
					"index":3
				}
			}
		}
	],
	"meshes":[
		{
			"name":"\u041f\u043b\u043e\u0441\u043a\u043e\u0441\u0442\u044c.039",
			"primitives":[
				{
					"attributes":{
						"POSITION":0,
						"NORMAL":1,
						"TEXCOORD_0":2
					},
					"indices":3,
					"material":0
				}
			]
		}
	],
	"textures":[
		{
			"sampler":0,
			"source":0
		},
		{
			"sampler":0,
			"source":1
		},
		{
			"sampler":0,
			"source":2
		},
		{
			"sampler":0,
			"source":3
		}
	],
	"images":[
		{
			"bufferView":4,
			"mimeType":"image/png",
			"name":"Image"
		},
		{
			"bufferView":5,
			"mimeType":"image/jpeg",
			"name":"Book2_Normal"
		},
		{
			"bufferView":6,
			"mimeType":"image/jpeg",
			"name":"Book2_BaseColor"
		},
		{
			"bufferView":7,
			"mimeType":"image/png",
			"name":"Book2_Metallic.jpg-Book2_Roughness.jpg"
		}
	],
	"accessors":[
		{
			"bufferView":0,
			"componentType":5126,
			"count":204,
			"max":[
				0.85999995470047,
				0.19999998807907104,
				1
			],
			"min":[
				-0.8135382533073425,
				-0.19999998807907104,
				-1.0096007585525513
			],
			"type":"VEC3"
		},
		{
			"bufferView":1,
			"componentType":5126,
			"count":204,
			"type":"VEC3"
		},
		{
			"bufferView":2,
			"componentType":5126,
			"count":204,
			"type":"VEC2"
		},
		{
			"bufferView":3,
			"componentType":5123,
			"count":378,
			"type":"SCALAR"
		}
	],
	"bufferViews":[
		{
			"buffer":0,
			"byteLength":2448,
			"byteOffset":0,
			"target":34962
		},
		{
			"buffer":0,
			"byteLength":2448,
			"byteOffset":2448,
			"target":34962
		},
		{
			"buffer":0,
			"byteLength":1632,
			"byteOffset":4896,
			"target":34962
		},
		{
			"buffer":0,
			"byteLength":756,
			"byteOffset":6528,
			"target":34963
		},
		{
			"buffer":0,
			"byteLength":79208,
			"byteOffset":7284
		},
		{
			"buffer":0,
			"byteLength":415271,
			"byteOffset":86492
		},
		{
			"buffer":0,
			"byteLength":377673,
			"byteOffset":501764
		},
		{
			"buffer":0,
			"byteLength":1410329,
			"byteOffset":879440
		}
	],
	"samplers":[
		{
			"magFilter":9729,
			"minFilter":9987
		}
	],
	"buffers":[
		{
			"byteLength":2289772,
			"uri":"data:application/octet-stream;base64,"
		}
	]
}
