{
	"asset":{
		"generator":"Khronos glTF Blender I/O v3.6.28",
		"version":"2.0"
	},
	"scene":0,
	"scenes":[
		{
			"name":"Scene",
			"nodes":[
				4
			]
		}
	],
	"nodes":[
		{
			"mesh":0,
			"name":"FarmerFull",
			"rotation":[
				0.70710688829422,
				2.9623825170688178e-08,
				-5.854290918705374e-08,
				0.7071066498756409
			],
			"scale":[
				0.9999999403953552,
				1,
				0.9999998807907104
			],
			"translation":[
				2.0510579190613498e-07,
				-1.0793635141226332e-07,
				-4.358275162985592e-08
			]
		},
		{
			"children":[
				0
			],
			"name":"Bone",
			"rotation":[
				-0.9422052502632141,
				-0.05002053081989288,
				0.16360975801944733,
				0.28806090354919434
			],
			"scale":[
				0.3921205401420593,
				0.39212051033973694,
				0.3921205401420593
			]
		},
		{
			"mesh":1,
			"name":"statCube",
			"rotation":[
				0.7071068286895752,
				0,
				0,
				0.7071067094802856
			],
			"scale":[
				1,
				0.9999998807907104,
				1
			],
			"translation":[
				-5.960464477539063e-08,
				-8.762449255073079e-08,
				-2.1712722286792996e-08
			]
		},
		{
			"children":[
				2
			],
			"name":"Bone.001",
			"rotation":[
				-0.6691306233406067,
				0,
				0,
				0.7431448101997375
			],
			"scale":[
				2.4255683422088623,
				0.7276709675788879,
				0.036383531987667084
			],
			"translation":[
				2.384185791015625e-07,
				4.76837158203125e-07,
				0
			]
		},
		{
			"children":[
				1,
				3
			],
			"name":"Armature",
			"translation":[
				-1.1718928813934326,
				0,
				0
			]
		}
	],
	"animations":[
		{
			"channels":[
				{
					"sampler":0,
					"target":{
						"node":1,
						"path":"translation"
					}
				},
				{
					"sampler":1,
					"target":{
						"node":1,
						"path":"rotation"
					}
				},
				{
					"sampler":2,
					"target":{
						"node":1,
						"path":"scale"
					}
				},
				{
					"sampler":3,
					"target":{
						"node":3,
						"path":"translation"
					}
				},
				{
					"sampler":4,
					"target":{
						"node":3,
						"path":"rotation"
					}
				},
				{
					"sampler":5,
					"target":{
						"node":3,
						"path":"scale"
					}
				},
				{
					"sampler":6,
					"target":{
						"node":4,
						"path":"translation"
					}
				},
				{
					"sampler":7,
					"target":{
						"node":4,
						"path":"rotation"
					}
				},
				{
					"sampler":8,
					"target":{
						"node":4,
						"path":"scale"
					}
				}
			],
			"name":"FarmerOrigin",
			"samplers":[
				{
					"input":28,
					"interpolation":"STEP",
					"output":29
				},
				{
					"input":28,
					"interpolation":"STEP",
					"output":30
				},
				{
					"input":28,
					"interpolation":"STEP",
					"output":31
				},
				{
					"input":28,
					"interpolation":"STEP",
					"output":32
				},
				{
					"input":28,
					"interpolation":"STEP",
					"output":33
				},
				{
					"input":28,
					"interpolation":"STEP",
					"output":34
				},
				{
					"input":28,
					"interpolation":"STEP",
					"output":35
				},
				{
					"input":28,
					"interpolation":"STEP",
					"output":36
				},
				{
					"input":28,
					"interpolation":"STEP",
					"output":37
				}
			]
		},
		{
			"channels":[
				{
					"sampler":0,
					"target":{
						"node":1,
						"path":"translation"
					}
				},
				{
					"sampler":1,
					"target":{
						"node":1,
						"path":"rotation"
					}
				},
				{
					"sampler":2,
					"target":{
						"node":1,
						"path":"scale"
					}
				},
				{
					"sampler":3,
					"target":{
						"node":3,
						"path":"translation"
					}
				},
				{
					"sampler":4,
					"target":{
						"node":3,
						"path":"rotation"
					}
				},
				{
					"sampler":5,
					"target":{
						"node":3,
						"path":"scale"
					}
				}
			],
			"name":"FarmerStatMove",
			"samplers":[
				{
					"input":38,
					"interpolation":"STEP",
					"output":39
				},
				{
					"input":40,
					"interpolation":"LINEAR",
					"output":41
				},
				{
					"input":40,
					"interpolation":"LINEAR",
					"output":42
				},
				{
					"input":38,
					"interpolation":"STEP",
					"output":43
				},
				{
					"input":40,
					"interpolation":"LINEAR",
					"output":44
				},
				{
					"input":40,
					"interpolation":"LINEAR",
					"output":45
				}
			]
		},
		{
			"channels":[
				{
					"sampler":0,
					"target":{
						"node":1,
						"path":"translation"
					}
				},
				{
					"sampler":1,
					"target":{
						"node":1,
						"path":"rotation"
					}
				},
				{
					"sampler":2,
					"target":{
						"node":1,
						"path":"scale"
					}
				},
				{
					"sampler":3,
					"target":{
						"node":3,
						"path":"translation"
					}
				},
				{
					"sampler":4,
					"target":{
						"node":3,
						"path":"rotation"
					}
				},
				{
					"sampler":5,
					"target":{
						"node":3,
						"path":"scale"
					}
				}
			],
			"name":"FarmerStatRev",
			"samplers":[
				{
					"input":38,
					"interpolation":"STEP",
					"output":46
				},
				{
					"input":40,
					"interpolation":"LINEAR",
					"output":47
				},
				{
					"input":40,
					"interpolation":"LINEAR",
					"output":48
				},
				{
					"input":38,
					"interpolation":"STEP",
					"output":49
				},
				{
					"input":40,
					"interpolation":"LINEAR",
					"output":50
				},
				{
					"input":40,
					"interpolation":"LINEAR",
					"output":51
				}
			]
		}
	],
	"materials":[
		{
			"doubleSided":true,
			"name":"Brown",
			"pbrMetallicRoughness":{
				"baseColorFactor":[
					0.1119324266910553,
					0.021218974143266678,
					0.017641959711909294,
					1
				],
				"metallicFactor":0,
				"roughnessFactor":0.5
			}
		},
		{
			"doubleSided":true,
			"name":"Beige",
			"pbrMetallicRoughness":{
				"baseColorFactor":[
					0.9646856188774109,
					0.8227852582931519,
					0.45641112327575684,
					1
				],
				"metallicFactor":0,
				"roughnessFactor":0.5
			}
		},
		{
			"doubleSided":true,
			"name":"Blue",
			"pbrMetallicRoughness":{
				"baseColorFactor":[
					0.26225000619888306,
					0.43965667486190796,
					0.6172066330909729,
					1
				],
				"metallicFactor":0,
				"roughnessFactor":0.5
			}
		},
		{
			"doubleSided":true,
			"name":"Brown.001",
			"pbrMetallicRoughness":{
				"baseColorFactor":[
					0.1119324266910553,
					0.021218974143266678,
					0.017641959711909294,
					1
				],
				"metallicFactor":0,
				"roughnessFactor":0.5
			}
		},
		{
			"doubleSided":true,
			"name":"Brown.002",
			"pbrMetallicRoughness":{
				"baseColorFactor":[
					0.1119324266910553,
					0.021218974143266678,
					0.017641959711909294,
					1
				],
				"metallicFactor":0,
				"roughnessFactor":0.5
			}
		}
	],
	"meshes":[
		{
			"name":"Sphere.003",
			"primitives":[
				{
					"attributes":{
						"POSITION":0,
						"NORMAL":1,
						"TEXCOORD_0":2
					},
					"indices":3,
					"material":0
				},
				{
					"attributes":{
						"POSITION":4,
						"NORMAL":5,
						"TEXCOORD_0":6
					},
					"indices":7,
					"material":1
				},
				{
					"attributes":{
						"POSITION":8,
						"NORMAL":9,
						"TEXCOORD_0":10
					},
					"indices":11,
					"material":2
				},
				{
					"attributes":{
						"POSITION":12,
						"NORMAL":13,
						"TEXCOORD_0":14
					},
					"indices":15,
					"material":3
				},
				{
					"attributes":{
						"POSITION":16,
						"NORMAL":17,
						"TEXCOORD_0":18
					},
					"indices":19,
					"material":4
				}
			]
		},
		{
			"name":"Cube.007",
			"primitives":[
				{
					"attributes":{
						"POSITION":20,
						"NORMAL":21,
						"TEXCOORD_0":22
					},
					"indices":23,
					"material":2
				},
				{
					"attributes":{
						"POSITION":24,
						"NORMAL":25,
						"TEXCOORD_0":26
					},
					"indices":27,
					"material":0
				}
			]
		}
	],
	"accessors":[
		{
			"bufferView":0,
			"componentType":5126,
			"count":1984,
			"max":[
				1.2370367050170898,
				10.838399887084961,
				1.2072385549545288
			],
			"min":[
				-0.7629621028900146,
				8.838399887084961,
				-0.7927608489990234
			],
			"type":"VEC3"
		},
		{
			"bufferView":1,
			"componentType":5126,
			"count":1984,
			"type":"VEC3"
		},
		{
			"bufferView":2,
			"componentType":5126,
			"count":1984,
			"type":"VEC2"
		},
		{
			"bufferView":3,
			"componentType":5123,
			"count":2880,
			"type":"SCALAR"
		},
		{
			"bufferView":4,
			"componentType":5126,
			"count":4160,
			"max":[
				1.4687795639038086,
				9.278373718261719,
				1.2067465782165527
			],
			"min":[
				-1.0046582221984863,
				5.53336763381958,
				-0.7922693490982056
			],
			"type":"VEC3"
		},
		{
			"bufferView":5,
			"componentType":5126,
			"count":4160,
			"type":"VEC3"
		},
		{
			"bufferView":6,
			"componentType":5126,
			"count":4160,
			"type":"VEC2"
		},
		{
			"bufferView":7,
			"componentType":5123,
			"count":7290,
			"type":"SCALAR"
		},
		{
			"bufferView":8,
			"componentType":5126,
			"count":1284,
			"max":[
				1.3333734273910522,
				9.259063720703125,
				1.3035744428634644
			],
			"min":[
				-0.8592972755432129,
				5.267443656921387,
				-0.8890972137451172
			],
			"type":"VEC3"
		},
		{
			"bufferView":9,
			"componentType":5126,
			"count":1284,
			"type":"VEC3"
		},
		{
			"bufferView":10,
			"componentType":5126,
			"count":1284,
			"type":"VEC2"
		},
		{
			"bufferView":11,
			"componentType":5123,
			"count":2772,
			"type":"SCALAR"
		},
		{
			"bufferView":12,
			"componentType":5126,
			"count":608,
			"max":[
				1.4687795639038086,
				8.231307029724121,
				0.5939571857452393
			],
			"min":[
				0.6953420639038086,
				7.040962219238281,
				-0.17947927117347717
			],
			"type":"VEC3"
		},
		{
			"bufferView":13,
			"componentType":5126,
			"count":608,
			"type":"VEC3"
		},
		{
			"bufferView":14,
			"componentType":5126,
			"count":608,
			"type":"VEC2"
		},
		{
			"bufferView":15,
			"componentType":5123,
			"count":1626,
			"type":"SCALAR"
		},
		{
			"bufferView":16,
			"componentType":5126,
			"count":544,
			"max":[
				-0.23122075200080872,
				8.098306655883789,
				0.5939571857452393
			],
			"min":[
				-1.0046582221984863,
				7.040962219238281,
				-0.17947927117347717
			],
			"type":"VEC3"
		},
		{
			"bufferView":17,
			"componentType":5126,
			"count":544,
			"type":"VEC3"
		},
		{
			"bufferView":18,
			"componentType":5126,
			"count":544,
			"type":"VEC2"
		},
		{
			"bufferView":19,
			"componentType":5123,
			"count":1434,
			"type":"SCALAR"
		},
		{
			"bufferView":20,
			"componentType":5126,
			"count":24,
			"max":[
				-0.0688745379447937,
				0.02483922243118286,
				-3.6189956665039062
			],
			"min":[
				-1.0688745975494385,
				-0.9751607775688171,
				-4.618995666503906
			],
			"type":"VEC3"
		},
		{
			"bufferView":21,
			"componentType":5126,
			"count":24,
			"type":"VEC3"
		},
		{
			"bufferView":22,
			"componentType":5126,
			"count":24,
			"type":"VEC2"
		},
		{
			"bufferView":23,
			"componentType":5123,
			"count":36,
			"type":"SCALAR"
		},
		{
			"bufferView":24,
			"componentType":5126,
			"count":44069,
			"max":[
				-0.12120646238327026,
				0.7508510947227478,
				-3.752812385559082
			],
			"min":[
				-1.0284994840621948,
				0.08418446779251099,
				-4.47926139831543
			],
			"type":"VEC3"
		},
		{
			"bufferView":25,
			"componentType":5126,
			"count":44069,
			"type":"VEC3"
		},
		{
			"bufferView":26,
			"componentType":5126,
			"count":44069,
			"type":"VEC2"
		},
		{
			"bufferView":27,
			"componentType":5123,
			"count":126480,
			"type":"SCALAR"
		},
		{
			"bufferView":28,
			"componentType":5126,
			"count":2,
			"max":[
				0.08333333333333333
			],
			"min":[
				0.041666666666666664
			],
			"type":"SCALAR"
		},
		{
			"bufferView":29,
			"componentType":5126,
			"count":2,
			"type":"VEC3"
		},
		{
			"bufferView":30,
			"componentType":5126,
			"count":2,
			"type":"VEC4"
		},
		{
			"bufferView":31,
			"componentType":5126,
			"count":2,
			"type":"VEC3"
		},
		{
			"bufferView":32,
			"componentType":5126,
			"count":2,
			"type":"VEC3"
		},
		{
			"bufferView":33,
			"componentType":5126,
			"count":2,
			"type":"VEC4"
		},
		{
			"bufferView":34,
			"componentType":5126,
			"count":2,
			"type":"VEC3"
		},
		{
			"bufferView":35,
			"componentType":5126,
			"count":2,
			"type":"VEC3"
		},
		{
			"bufferView":36,
			"componentType":5126,
			"count":2,
			"type":"VEC4"
		},
		{
			"bufferView":37,
			"componentType":5126,
			"count":2,
			"type":"VEC3"
		},
		{
			"bufferView":38,
			"componentType":5126,
			"count":2,
			"max":[
				0.5833333333333334
			],
			"min":[
				0.041666666666666664
			],
			"type":"SCALAR"
		},
		{
			"bufferView":39,
			"componentType":5126,
			"count":2,
			"type":"VEC3"
		},
		{
			"bufferView":40,
			"componentType":5126,
			"count":14,
			"max":[
				0.5833333333333334
			],
			"min":[
				0.041666666666666664
			],
			"type":"SCALAR"
		},
		{
			"bufferView":41,
			"componentType":5126,
			"count":14,
			"type":"VEC4"
		},
		{
			"bufferView":42,
			"componentType":5126,
			"count":14,
			"type":"VEC3"
		},
		{
			"bufferView":43,
			"componentType":5126,
			"count":2,
			"type":"VEC3"
		},
		{
			"bufferView":44,
			"componentType":5126,
			"count":14,
			"type":"VEC4"
		},
		{
			"bufferView":45,
			"componentType":5126,
			"count":14,
			"type":"VEC3"
		},
		{
			"bufferView":46,
			"componentType":5126,
			"count":2,
			"type":"VEC3"
		},
		{
			"bufferView":47,
			"componentType":5126,
			"count":14,
			"type":"VEC4"
		},
		{
			"bufferView":48,
			"componentType":5126,
			"count":14,
			"type":"VEC3"
		},
		{
			"bufferView":49,
			"componentType":5126,
			"count":2,
			"type":"VEC3"
		},
		{
			"bufferView":50,
			"componentType":5126,
			"count":14,
			"type":"VEC4"
		},
		{
			"bufferView":51,
			"componentType":5126,
			"count":14,
			"type":"VEC3"
		}
	],
	"bufferViews":[
		{
			"buffer":0,
			"byteLength":23808,
			"byteOffset":0,
			"target":34962
		},
		{
			"buffer":0,
			"byteLength":23808,
			"byteOffset":23808,
			"target":34962
		},
		{
			"buffer":0,
			"byteLength":15872,
			"byteOffset":47616,
			"target":34962
		},
		{
			"buffer":0,
			"byteLength":5760,
			"byteOffset":63488,
			"target":34963
		},
		{
			"buffer":0,
			"byteLength":49920,
			"byteOffset":69248,
			"target":34962
		},
		{
			"buffer":0,
			"byteLength":49920,
			"byteOffset":119168,
			"target":34962
		},
		{
			"buffer":0,
			"byteLength":33280,
			"byteOffset":169088,
			"target":34962
		},
		{
			"buffer":0,
			"byteLength":14580,
			"byteOffset":202368,
			"target":34963
		},
		{
			"buffer":0,
			"byteLength":15408,
			"byteOffset":216948,
			"target":34962
		},
		{
			"buffer":0,
			"byteLength":15408,
			"byteOffset":232356,
			"target":34962
		},
		{
			"buffer":0,
			"byteLength":10272,
			"byteOffset":247764,
			"target":34962
		},
		{
			"buffer":0,
			"byteLength":5544,
			"byteOffset":258036,
			"target":34963
		},
		{
			"buffer":0,
			"byteLength":7296,
			"byteOffset":263580,
			"target":34962
		},
		{
			"buffer":0,
			"byteLength":7296,
			"byteOffset":270876,
			"target":34962
		},
		{
			"buffer":0,
			"byteLength":4864,
			"byteOffset":278172,
			"target":34962
		},
		{
			"buffer":0,
			"byteLength":3252,
			"byteOffset":283036,
			"target":34963
		},
		{
			"buffer":0,
			"byteLength":6528,
			"byteOffset":286288,
			"target":34962
		},
		{
			"buffer":0,
			"byteLength":6528,
			"byteOffset":292816,
			"target":34962
		},
		{
			"buffer":0,
			"byteLength":4352,
			"byteOffset":299344,
			"target":34962
		},
		{
			"buffer":0,
			"byteLength":2868,
			"byteOffset":303696,
			"target":34963
		},
		{
			"buffer":0,
			"byteLength":288,
			"byteOffset":306564,
			"target":34962
		},
		{
			"buffer":0,
			"byteLength":288,
			"byteOffset":306852,
			"target":34962
		},
		{
			"buffer":0,
			"byteLength":192,
			"byteOffset":307140,
			"target":34962
		},
		{
			"buffer":0,
			"byteLength":72,
			"byteOffset":307332,
			"target":34963
		},
		{
			"buffer":0,
			"byteLength":528828,
			"byteOffset":307404,
			"target":34962
		},
		{
			"buffer":0,
			"byteLength":528828,
			"byteOffset":836232,
			"target":34962
		},
		{
			"buffer":0,
			"byteLength":352552,
			"byteOffset":1365060,
			"target":34962
		},
		{
			"buffer":0,
			"byteLength":252960,
			"byteOffset":1717612,
			"target":34963
		},
		{
			"buffer":0,
			"byteLength":8,
			"byteOffset":1970572
		},
		{
			"buffer":0,
			"byteLength":24,
			"byteOffset":1970580
		},
		{
			"buffer":0,
			"byteLength":32,
			"byteOffset":1970604
		},
		{
			"buffer":0,
			"byteLength":24,
			"byteOffset":1970636
		},
		{
			"buffer":0,
			"byteLength":24,
			"byteOffset":1970660
		},
		{
			"buffer":0,
			"byteLength":32,
			"byteOffset":1970684
		},
		{
			"buffer":0,
			"byteLength":24,
			"byteOffset":1970716
		},
		{
			"buffer":0,
			"byteLength":24,
			"byteOffset":1970740
		},
		{
			"buffer":0,
			"byteLength":32,
			"byteOffset":1970764
		},
		{
			"buffer":0,
			"byteLength":24,
			"byteOffset":1970796
		},
		{
			"buffer":0,
			"byteLength":8,
			"byteOffset":1970820
		},
		{
			"buffer":0,
			"byteLength":24,
			"byteOffset":1970828
		},
		{
			"buffer":0,
			"byteLength":56,
			"byteOffset":1970852
		},
		{
			"buffer":0,
			"byteLength":224,
			"byteOffset":1970908
		},
		{
			"buffer":0,
			"byteLength":168,
			"byteOffset":1971132
		},
		{
			"buffer":0,
			"byteLength":24,
			"byteOffset":1971300
		},
		{
			"buffer":0,
			"byteLength":224,
			"byteOffset":1971324
		},
		{
			"buffer":0,
			"byteLength":168,
			"byteOffset":1971548
		},
		{
			"buffer":0,
			"byteLength":24,
			"byteOffset":1971716
		},
		{
			"buffer":0,
			"byteLength":224,
			"byteOffset":1971740
		},
		{
			"buffer":0,
			"byteLength":168,
			"byteOffset":1971964
		},
		{
			"buffer":0,
			"byteLength":24,
			"byteOffset":1972132
		},
		{
			"buffer":0,
			"byteLength":224,
			"byteOffset":1972156
		},
		{
			"buffer":0,
			"byteLength":168,
			"byteOffset":1972380
		}
	],
	"buffers":[
		{
			"byteLength":1972548,
			"uri":"data:application/octet-stream;base64,"
		}
	]
}
