{
	"asset":{
		"generator":"Khronos glTF Blender I/O v3.6.28",
		"version":"2.0"
	},
	"scene":0,
	"scenes":[
		{
			"name":"Scene",
			"nodes":[
				1
			]
		}
	],
	"nodes":[
		{
			"mesh":0,
			"name":"Text.002",
			"scale":[
				0.20063453912734985,
				7.999999523162842,
				1
			],
			"translation":[
				-0.001659393310546875,
				0.8489677906036377,
				-0.0006204043747857213
			]
		},
		{
			"children":[
				0
			],
			"mesh":1,
			"name":"findButton",
			"rotation":[
				0.7071068286895752,
				0,
				0,
				0.7071068286895752
			],
			"scale":[
				4.984186172485352,
				0.125,
				1
			],
			"translation":[
				30.408517837524414,
				-0.10612096637487411,
				-0.23070979118347168
			]
		}
	],
	"materials":[
		{
			"doubleSided":true,
			"name":"Brown",
			"pbrMetallicRoughness":{
				"baseColorFactor":[
					0.1119324266910553,
					0.021218974143266678,
					0.017641959711909294,
					1
				],
				"metallicFactor":0,
				"roughnessFactor":0.5
			}
		},
		{
			"doubleSided":true,
			"name":"Beige",
			"pbrMetallicRoughness":{
				"baseColorFactor":[
					0.9646856188774109,
					0.8227852582931519,
					0.45641112327575684,
					1
				],
				"metallicFactor":0,
				"roughnessFactor":0.5
			}
		}
	],
	"meshes":[
		{
			"name":"Text.006",
			"primitives":[
				{
					"attributes":{
						"POSITION":0,
						"NORMAL":1,
						"TEXCOORD_0":2
					},
					"indices":3,
					"material":0
				}
			]
		},
		{
			"name":"Cube.013",
			"primitives":[
				{
					"attributes":{
						"POSITION":4,
						"NORMAL":5,
						"TEXCOORD_0":6
					},
					"indices":7,
					"material":1
				}
			]
		}
	],
	"accessors":[
		{
			"bufferView":0,
			"componentType":5126,
			"count":9166,
			"max":[
				2.1651110649108887,
				0.05000000074505806,
				0.23599767684936523
			],
			"min":[
				-2.1651105880737305,
				-0.05000000074505806,
				-0.23599766194820404
			],
			"type":"VEC3"
		},
		{
			"bufferView":1,
			"componentType":5126,
			"count":9166,
			"type":"VEC3"
		},
		{
			"bufferView":2,
			"componentType":5126,
			"count":9166,
			"type":"VEC2"
		},
		{
			"bufferView":3,
			"componentType":5123,
			"count":27252,
			"type":"SCALAR"
		},
		{
			"bufferView":4,
			"componentType":5126,
			"count":24,
			"max":[
				0.5,
				0.5,
				0.5
			],
			"min":[
				-0.5,
				-0.5,
				-0.5
			],
			"type":"VEC3"
		},
		{
			"bufferView":5,
			"componentType":5126,
			"count":24,
			"type":"VEC3"
		},
		{
			"bufferView":6,
			"componentType":5126,
			"count":24,
			"type":"VEC2"
		},
		{
			"bufferView":7,
			"componentType":5123,
			"count":36,
			"type":"SCALAR"
		}
	],
	"bufferViews":[
		{
			"buffer":0,
			"byteLength":109992,
			"byteOffset":0,
			"target":34962
		},
		{
			"buffer":0,
			"byteLength":109992,
			"byteOffset":109992,
			"target":34962
		},
		{
			"buffer":0,
			"byteLength":73328,
			"byteOffset":219984,
			"target":34962
		},
		{
			"buffer":0,
			"byteLength":54504,
			"byteOffset":293312,
			"target":34963
		},
		{
			"buffer":0,
			"byteLength":288,
			"byteOffset":347816,
			"target":34962
		},
		{
			"buffer":0,
			"byteLength":288,
			"byteOffset":348104,
			"target":34962
		},
		{
			"buffer":0,
			"byteLength":192,
			"byteOffset":348392,
			"target":34962
		},
		{
			"buffer":0,
			"byteLength":72,
			"byteOffset":348584,
			"target":34963
		}
	],
	"buffers":[
		{
			"byteLength":348656,
			"uri":"data:application/octet-stream;base64,"
		}
	]
}
