{
	"asset":{
		"generator":"Khronos glTF Blender I/O v3.6.28",
		"version":"2.0"
	},
	"scene":0,
	"scenes":[
		{
			"name":"Scene",
			"nodes":[
				0
			]
		}
	],
	"nodes":[
		{
			"mesh":0,
			"name":"flowerPetals",
			"rotation":[
				0.4779457151889801,
				-0.1970338225364685,
				0.17474865913391113,
				0.8379789590835571
			],
			"scale":[
				0.5359250903129578,
				0.5359251499176025,
				0.5359251499176025
			],
			"translation":[
				3.4915103912353516,
				8.814480781555176,
				2.682932138442993
			]
		}
	],
	"animations":[
		{
			"channels":[
				{
					"sampler":0,
					"target":{
						"node":0,
						"path":"translation"
					}
				},
				{
					"sampler":1,
					"target":{
						"node":0,
						"path":"rotation"
					}
				},
				{
					"sampler":2,
					"target":{
						"node":0,
						"path":"scale"
					}
				}
			],
			"name":"FlowerSway",
			"samplers":[
				{
					"input":12,
					"interpolation":"STEP",
					"output":13
				},
				{
					"input":14,
					"interpolation":"LINEAR",
					"output":15
				},
				{
					"input":12,
					"interpolation":"STEP",
					"output":16
				}
			]
		}
	],
	"materials":[
		{
			"doubleSided":true,
			"name":"Material.003",
			"pbrMetallicRoughness":{
				"metallicFactor":0,
				"roughnessFactor":0.5
			}
		},
		{
			"doubleSided":true,
			"name":"Material.002",
			"pbrMetallicRoughness":{
				"baseColorFactor":[
					0.467783659696579,
					0.3813258409500122,
					0.0030353895854204893,
					1
				],
				"metallicFactor":0,
				"roughnessFactor":0.5
			}
		},
		{
			"doubleSided":true,
			"name":"Material.001",
			"pbrMetallicRoughness":{
				"baseColorFactor":[
					0.9473063349723816,
					0.428690105676651,
					0.0006072015385143459,
					1
				],
				"metallicFactor":0,
				"roughnessFactor":0.5
			}
		}
	],
	"meshes":[
		{
			"name":"Petals",
			"primitives":[
				{
					"attributes":{
						"POSITION":0,
						"NORMAL":1,
						"TEXCOORD_0":2
					},
					"indices":3,
					"material":0
				},
				{
					"attributes":{
						"POSITION":4,
						"NORMAL":5,
						"TEXCOORD_0":6
					},
					"indices":7,
					"material":1
				},
				{
					"attributes":{
						"POSITION":8,
						"NORMAL":9,
						"TEXCOORD_0":10
					},
					"indices":11,
					"material":2
				}
			]
		}
	],
	"accessors":[
		{
			"bufferView":0,
			"componentType":5126,
			"count":14500,
			"max":[
				7.068235874176025,
				0.5709344744682312,
				6.622043609619141
			],
			"min":[
				-7.076083183288574,
				-0.3345927596092224,
				-7.0189619064331055
			],
			"type":"VEC3"
		},
		{
			"bufferView":1,
			"componentType":5126,
			"count":14500,
			"type":"VEC3"
		},
		{
			"bufferView":2,
			"componentType":5126,
			"count":14500,
			"type":"VEC2"
		},
		{
			"bufferView":3,
			"componentType":5123,
			"count":22200,
			"type":"SCALAR"
		},
		{
			"bufferView":4,
			"componentType":5126,
			"count":1984,
			"max":[
				0.49999937415122986,
				0.5000004768371582,
				0.5000009536743164
			],
			"min":[
				-0.5,
				-0.4999995231628418,
				-0.49999868869781494
			],
			"type":"VEC3"
		},
		{
			"bufferView":5,
			"componentType":5126,
			"count":1984,
			"type":"VEC3"
		},
		{
			"bufferView":6,
			"componentType":5126,
			"count":1984,
			"type":"VEC2"
		},
		{
			"bufferView":7,
			"componentType":5123,
			"count":2880,
			"type":"SCALAR"
		},
		{
			"bufferView":8,
			"componentType":5126,
			"count":2304,
			"max":[
				1.2342132329940796,
				0.48397189378738403,
				1.2342133522033691
			],
			"min":[
				-1.2342114448547363,
				-0.4419013261795044,
				-1.2342114448547363
			],
			"type":"VEC3"
		},
		{
			"bufferView":9,
			"componentType":5126,
			"count":2304,
			"type":"VEC3"
		},
		{
			"bufferView":10,
			"componentType":5126,
			"count":2304,
			"type":"VEC2"
		},
		{
			"bufferView":11,
			"componentType":5123,
			"count":3456,
			"type":"SCALAR"
		},
		{
			"bufferView":12,
			"componentType":5126,
			"count":2,
			"max":[
				5
			],
			"min":[
				0.041666666666666664
			],
			"type":"SCALAR"
		},
		{
			"bufferView":13,
			"componentType":5126,
			"count":2,
			"type":"VEC3"
		},
		{
			"bufferView":14,
			"componentType":5126,
			"count":120,
			"max":[
				5
			],
			"min":[
				0.041666666666666664
			],
			"type":"SCALAR"
		},
		{
			"bufferView":15,
			"componentType":5126,
			"count":120,
			"type":"VEC4"
		},
		{
			"bufferView":16,
			"componentType":5126,
			"count":2,
			"type":"VEC3"
		}
	],
	"bufferViews":[
		{
			"buffer":0,
			"byteLength":174000,
			"byteOffset":0,
			"target":34962
		},
		{
			"buffer":0,
			"byteLength":174000,
			"byteOffset":174000,
			"target":34962
		},
		{
			"buffer":0,
			"byteLength":116000,
			"byteOffset":348000,
			"target":34962
		},
		{
			"buffer":0,
			"byteLength":44400,
			"byteOffset":464000,
			"target":34963
		},
		{
			"buffer":0,
			"byteLength":23808,
			"byteOffset":508400,
			"target":34962
		},
		{
			"buffer":0,
			"byteLength":23808,
			"byteOffset":532208,
			"target":34962
		},
		{
			"buffer":0,
			"byteLength":15872,
			"byteOffset":556016,
			"target":34962
		},
		{
			"buffer":0,
			"byteLength":5760,
			"byteOffset":571888,
			"target":34963
		},
		{
			"buffer":0,
			"byteLength":27648,
			"byteOffset":577648,
			"target":34962
		},
		{
			"buffer":0,
			"byteLength":27648,
			"byteOffset":605296,
			"target":34962
		},
		{
			"buffer":0,
			"byteLength":18432,
			"byteOffset":632944,
			"target":34962
		},
		{
			"buffer":0,
			"byteLength":6912,
			"byteOffset":651376,
			"target":34963
		},
		{
			"buffer":0,
			"byteLength":8,
			"byteOffset":658288
		},
		{
			"buffer":0,
			"byteLength":24,
			"byteOffset":658296
		},
		{
			"buffer":0,
			"byteLength":480,
			"byteOffset":658320
		},
		{
			"buffer":0,
			"byteLength":1920,
			"byteOffset":658800
		},
		{
			"buffer":0,
			"byteLength":24,
			"byteOffset":660720
		}
	],
	"buffers":[
		{
			"byteLength":660744,
			"uri":"data:application/octet-stream;base64,"
		}
	]
}
