{
	"asset":{
		"generator":"Khronos glTF Blender I/O v3.6.28",
		"version":"2.0"
	},
	"scene":0,
	"scenes":[
		{
			"name":"Scene",
			"nodes":[
				1
			]
		}
	],
	"nodes":[
		{
			"mesh":0,
			"name":"Text.001",
			"scale":[
				0.16281211376190186,
				7.999999523162842,
				1
			],
			"translation":[
				-0.0041506290435791016,
				0.8489677309989929,
				-0.0006204416276887059
			]
		},
		{
			"children":[
				0
			],
			"mesh":1,
			"name":"joinButton",
			"rotation":[
				0.7071068286895752,
				0,
				0,
				0.7071068286895752
			],
			"scale":[
				6.142048358917236,
				0.125,
				1
			],
			"translation":[
				22.584575653076172,
				-0.10612096637487411,
				-0.23070979118347168
			]
		}
	],
	"materials":[
		{
			"doubleSided":true,
			"name":"Brown",
			"pbrMetallicRoughness":{
				"baseColorFactor":[
					0.1119324266910553,
					0.021218974143266678,
					0.017641959711909294,
					1
				],
				"metallicFactor":0,
				"roughnessFactor":0.5
			}
		},
		{
			"doubleSided":true,
			"name":"Beige",
			"pbrMetallicRoughness":{
				"baseColorFactor":[
					0.9646856188774109,
					0.8227852582931519,
					0.45641112327575684,
					1
				],
				"metallicFactor":0,
				"roughnessFactor":0.5
			}
		}
	],
	"meshes":[
		{
			"name":"Text.005",
			"primitives":[
				{
					"attributes":{
						"POSITION":0,
						"NORMAL":1,
						"TEXCOORD_0":2
					},
					"indices":3,
					"material":0
				}
			]
		},
		{
			"name":"Cube.012",
			"primitives":[
				{
					"attributes":{
						"POSITION":4,
						"NORMAL":5,
						"TEXCOORD_0":6
					},
					"indices":7,
					"material":1
				}
			]
		}
	],
	"accessors":[
		{
			"bufferView":0,
			"componentType":5126,
			"count":9094,
			"max":[
				2.89906644821167,
				0.05000000074505806,
				0.23599767684936523
			],
			"min":[
				-2.89906644821167,
				-0.05000000074505806,
				-0.23599766194820404
			],
			"type":"VEC3"
		},
		{
			"bufferView":1,
			"componentType":5126,
			"count":9094,
			"type":"VEC3"
		},
		{
			"bufferView":2,
			"componentType":5126,
			"count":9094,
			"type":"VEC2"
		},
		{
			"bufferView":3,
			"componentType":5123,
			"count":26964,
			"type":"SCALAR"
		},
		{
			"bufferView":4,
			"componentType":5126,
			"count":24,
			"max":[
				0.5,
				0.5,
				0.5
			],
			"min":[
				-0.5,
				-0.5,
				-0.5
			],
			"type":"VEC3"
		},
		{
			"bufferView":5,
			"componentType":5126,
			"count":24,
			"type":"VEC3"
		},
		{
			"bufferView":6,
			"componentType":5126,
			"count":24,
			"type":"VEC2"
		},
		{
			"bufferView":7,
			"componentType":5123,
			"count":36,
			"type":"SCALAR"
		}
	],
	"bufferViews":[
		{
			"buffer":0,
			"byteLength":109128,
			"byteOffset":0,
			"target":34962
		},
		{
			"buffer":0,
			"byteLength":109128,
			"byteOffset":109128,
			"target":34962
		},
		{
			"buffer":0,
			"byteLength":72752,
			"byteOffset":218256,
			"target":34962
		},
		{
			"buffer":0,
			"byteLength":53928,
			"byteOffset":291008,
			"target":34963
		},
		{
			"buffer":0,
			"byteLength":288,
			"byteOffset":344936,
			"target":34962
		},
		{
			"buffer":0,
			"byteLength":288,
			"byteOffset":345224,
			"target":34962
		},
		{
			"buffer":0,
			"byteLength":192,
			"byteOffset":345512,
			"target":34962
		},
		{
			"buffer":0,
			"byteLength":72,
			"byteOffset":345704,
			"target":34963
		}
	],
	"buffers":[
		{
			"byteLength":345776,
			"uri":"data:application/octet-stream;base64,"
		}
	]
}
