{
	"asset":{
		"generator":"Khronos glTF Blender I/O v3.6.28",
		"version":"2.0"
	},
	"scene":0,
	"scenes":[
		{
			"name":"Scene",
			"nodes":[
				1
			]
		}
	],
	"nodes":[
		{
			"mesh":0,
			"name":"Text",
			"scale":[
				0.45871567726135254,
				8,
				1
			],
			"translation":[
				-0.0017123222351074219,
				0.8489677906036377,
				0.028259368613362312
			]
		},
		{
			"children":[
				0
			],
			"mesh":1,
			"name":"nextButton",
			"rotation":[
				0.70710688829422,
				0,
				0,
				0.7071066498756409
			],
			"scale":[
				2.179999589920044,
				0.1250000149011612,
				1
			],
			"translation":[
				15.387493133544922,
				-0.10612096637487411,
				-0.23070979118347168
			]
		}
	],
	"materials":[
		{
			"doubleSided":true,
			"name":"Beige",
			"pbrMetallicRoughness":{
				"baseColorFactor":[
					0.9646856188774109,
					0.8227852582931519,
					0.45641112327575684,
					1
				],
				"metallicFactor":0,
				"roughnessFactor":0.5
			}
		},
		{
			"doubleSided":true,
			"name":"Red",
			"pbrMetallicRoughness":{
				"baseColorFactor":[
					0.5583406090736389,
					0.03954608738422394,
					0.012286510318517685,
					1
				],
				"metallicFactor":0,
				"roughnessFactor":0.5
			}
		}
	],
	"meshes":[
		{
			"name":"Text.004",
			"primitives":[
				{
					"attributes":{
						"POSITION":0,
						"NORMAL":1,
						"TEXCOORD_0":2
					},
					"indices":3,
					"material":0
				}
			]
		},
		{
			"name":"Cube.002",
			"primitives":[
				{
					"attributes":{
						"POSITION":4,
						"NORMAL":5,
						"TEXCOORD_0":6
					},
					"indices":7,
					"material":1
				}
			]
		}
	],
	"accessors":[
		{
			"bufferView":0,
			"componentType":5126,
			"count":1351,
			"max":[
				0.8731038570404053,
				0.05000000074505806,
				0.20711787045001984
			],
			"min":[
				-0.8731038570404053,
				-0.05000000074505806,
				-0.20711785554885864
			],
			"type":"VEC3"
		},
		{
			"bufferView":1,
			"componentType":5126,
			"count":1351,
			"type":"VEC3"
		},
		{
			"bufferView":2,
			"componentType":5126,
			"count":1351,
			"type":"VEC2"
		},
		{
			"bufferView":3,
			"componentType":5123,
			"count":3948,
			"type":"SCALAR"
		},
		{
			"bufferView":4,
			"componentType":5126,
			"count":24,
			"max":[
				0.5,
				0.5,
				0.5
			],
			"min":[
				-0.5,
				-0.5,
				-0.5
			],
			"type":"VEC3"
		},
		{
			"bufferView":5,
			"componentType":5126,
			"count":24,
			"type":"VEC3"
		},
		{
			"bufferView":6,
			"componentType":5126,
			"count":24,
			"type":"VEC2"
		},
		{
			"bufferView":7,
			"componentType":5123,
			"count":36,
			"type":"SCALAR"
		}
	],
	"bufferViews":[
		{
			"buffer":0,
			"byteLength":16212,
			"byteOffset":0,
			"target":34962
		},
		{
			"buffer":0,
			"byteLength":16212,
			"byteOffset":16212,
			"target":34962
		},
		{
			"buffer":0,
			"byteLength":10808,
			"byteOffset":32424,
			"target":34962
		},
		{
			"buffer":0,
			"byteLength":7896,
			"byteOffset":43232,
			"target":34963
		},
		{
			"buffer":0,
			"byteLength":288,
			"byteOffset":51128,
			"target":34962
		},
		{
			"buffer":0,
			"byteLength":288,
			"byteOffset":51416,
			"target":34962
		},
		{
			"buffer":0,
			"byteLength":192,
			"byteOffset":51704,
			"target":34962
		},
		{
			"buffer":0,
			"byteLength":72,
			"byteOffset":51896,
			"target":34963
		}
	],
	"buffers":[
		{
			"byteLength":51968,
			"uri":"data:application/octet-stream;base64,"
		}
	]
}
