{
	"asset":{
		"generator":"Khronos glTF Blender I/O v3.6.28",
		"version":"2.0"
	},
	"scene":0,
	"scenes":[
		{
			"name":"Scene",
			"nodes":[
				0,
				1,
				2,
				3,
				4
			]
		}
	],
	"nodes":[
		{
			"mesh":0,
			"name":"Copy",
			"scale":[
				22.14447021484375,
				22.14447021484375,
				22.14447021484375
			],
			"translation":[
				1.8135876655578613,
				-0.2658970057964325,
				5.70581579208374
			]
		},
		{
			"mesh":1,
			"name":"Curve.036",
			"scale":[
				22.14447021484375,
				22.14447021484375,
				22.14447021484375
			],
			"translation":[
				-1.1676101684570312,
				-0.2658970057964325,
				2.3668739795684814
			]
		},
		{
			"mesh":2,
			"name":"Curve.037",
			"scale":[
				22.14447021484375,
				22.14447021484375,
				22.14447021484375
			],
			"translation":[
				-1.1676101684570312,
				0.15887005627155304,
				2.3668739795684814
			]
		},
		{
			"mesh":3,
			"name":"Curve.038",
			"scale":[
				22.14447021484375,
				22.14447021484375,
				22.14447021484375
			],
			"translation":[
				-1.1676101684570312,
				0.028838150203227997,
				2.3668739795684814
			]
		},
		{
			"mesh":4,
			"name":"Curve.039",
			"scale":[
				22.14447021484375,
				22.14447021484375,
				22.14447021484375
			],
			"translation":[
				-1.1676101684570312,
				0.4069620370864868,
				2.3668739795684814
			]
		}
	],
	"animations":[
		{
			"channels":[
				{
					"sampler":0,
					"target":{
						"node":0,
						"path":"translation"
					}
				},
				{
					"sampler":1,
					"target":{
						"node":0,
						"path":"rotation"
					}
				}
			],
			"name":"CopyMoveA",
			"samplers":[
				{
					"input":20,
					"interpolation":"LINEAR",
					"output":21
				},
				{
					"input":22,
					"interpolation":"STEP",
					"output":23
				}
			]
		}
	],
	"materials":[
		{
			"doubleSided":true,
			"name":"Material.004",
			"pbrMetallicRoughness":{
				"baseColorFactor":[
					0,
					0,
					0,
					1
				],
				"metallicFactor":0,
				"roughnessFactor":0.5
			}
		},
		{
			"doubleSided":true,
			"name":"Material.002",
			"pbrMetallicRoughness":{
				"baseColorFactor":[
					0,
					0.29943418502807617,
					0.0134107181802392,
					1
				],
				"metallicFactor":0,
				"roughnessFactor":0.5
			}
		},
		{
			"doubleSided":true,
			"name":"Material.003",
			"pbrMetallicRoughness":{
				"baseColorFactor":[
					0.001824200851842761,
					0.11709543317556381,
					0.005522049032151699,
					1
				],
				"metallicFactor":0,
				"roughnessFactor":0.5
			}
		},
		{
			"doubleSided":true,
			"name":"Material.001",
			"pbrMetallicRoughness":{
				"baseColorFactor":[
					0.006342991255223751,
					0.8000000715255737,
					0.07013247907161713,
					1
				],
				"metallicFactor":0,
				"roughnessFactor":0.5
			}
		}
	],
	"meshes":[
		{
			"name":"Curve.035",
			"primitives":[
				{
					"attributes":{
						"POSITION":0,
						"NORMAL":1,
						"TEXCOORD_0":2
					},
					"indices":3,
					"material":0
				}
			]
		},
		{
			"name":"Curve.036",
			"primitives":[
				{
					"attributes":{
						"POSITION":4,
						"NORMAL":5,
						"TEXCOORD_0":6
					},
					"indices":7,
					"material":1
				}
			]
		},
		{
			"name":"Curve.037",
			"primitives":[
				{
					"attributes":{
						"POSITION":8,
						"NORMAL":9,
						"TEXCOORD_0":10
					},
					"indices":11,
					"material":2
				}
			]
		},
		{
			"name":"Curve.038",
			"primitives":[
				{
					"attributes":{
						"POSITION":12,
						"NORMAL":13,
						"TEXCOORD_0":14
					},
					"indices":15,
					"material":2
				}
			]
		},
		{
			"name":"Curve.039",
			"primitives":[
				{
					"attributes":{
						"POSITION":16,
						"NORMAL":17,
						"TEXCOORD_0":18
					},
					"indices":19,
					"material":3
				}
			]
		}
	],
	"accessors":[
		{
			"bufferView":0,
			"componentType":5126,
			"count":5489,
			"max":[
				0.25655654072761536,
				0,
				-0.3368892967700958
			],
			"min":[
				0.05492721125483513,
				0,
				-0.40949687361717224
			],
			"type":"VEC3"
		},
		{
			"bufferView":1,
			"componentType":5126,
			"count":5489,
			"type":"VEC3"
		},
		{
			"bufferView":2,
			"componentType":5126,
			"count":5489,
			"type":"VEC2"
		},
		{
			"bufferView":3,
			"componentType":5123,
			"count":16194,
			"type":"SCALAR"
		},
		{
			"bufferView":4,
			"componentType":5126,
			"count":36,
			"max":[
				0.5418777465820312,
				0,
				-0.11068901419639587
			],
			"min":[
				0.05482560768723488,
				0,
				-0.3030093312263489
			],
			"type":"VEC3"
		},
		{
			"bufferView":5,
			"componentType":5126,
			"count":36,
			"type":"VEC3"
		},
		{
			"bufferView":6,
			"componentType":5126,
			"count":36,
			"type":"VEC2"
		},
		{
			"bufferView":7,
			"componentType":5123,
			"count":102,
			"type":"SCALAR"
		},
		{
			"bufferView":8,
			"componentType":5126,
			"count":67,
			"max":[
				0.5174147486686707,
				0,
				-0.21566568315029144
			],
			"min":[
				0.39739885926246643,
				0,
				-0.3261815011501312
			],
			"type":"VEC3"
		},
		{
			"bufferView":9,
			"componentType":5126,
			"count":67,
			"type":"VEC3"
		},
		{
			"bufferView":10,
			"componentType":5126,
			"count":67,
			"type":"VEC2"
		},
		{
			"bufferView":11,
			"componentType":5123,
			"count":174,
			"type":"SCALAR"
		},
		{
			"bufferView":12,
			"componentType":5126,
			"count":59,
			"max":[
				0.4211353361606598,
				0,
				-0.26764658093452454
			],
			"min":[
				0.3598707914352417,
				0,
				-0.32225918769836426
			],
			"type":"VEC3"
		},
		{
			"bufferView":13,
			"componentType":5126,
			"count":59,
			"type":"VEC3"
		},
		{
			"bufferView":14,
			"componentType":5126,
			"count":59,
			"type":"VEC2"
		},
		{
			"bufferView":15,
			"componentType":5123,
			"count":171,
			"type":"SCALAR"
		},
		{
			"bufferView":16,
			"componentType":5126,
			"count":135,
			"max":[
				0.5418777465820312,
				0,
				-0.11068621277809143
			],
			"min":[
				0.05482278764247894,
				0,
				-0.26690396666526794
			],
			"type":"VEC3"
		},
		{
			"bufferView":17,
			"componentType":5126,
			"count":135,
			"type":"VEC3"
		},
		{
			"bufferView":18,
			"componentType":5126,
			"count":135,
			"type":"VEC2"
		},
		{
			"bufferView":19,
			"componentType":5123,
			"count":390,
			"type":"SCALAR"
		},
		{
			"bufferView":20,
			"componentType":5126,
			"count":11,
			"max":[
				0.4166666666666667
			],
			"min":[
				0
			],
			"type":"SCALAR"
		},
		{
			"bufferView":21,
			"componentType":5126,
			"count":11,
			"type":"VEC3"
		},
		{
			"bufferView":22,
			"componentType":5126,
			"count":2,
			"max":[
				0.4166666666666667
			],
			"min":[
				0
			],
			"type":"SCALAR"
		},
		{
			"bufferView":23,
			"componentType":5126,
			"count":2,
			"type":"VEC4"
		}
	],
	"bufferViews":[
		{
			"buffer":0,
			"byteLength":65868,
			"byteOffset":0,
			"target":34962
		},
		{
			"buffer":0,
			"byteLength":65868,
			"byteOffset":65868,
			"target":34962
		},
		{
			"buffer":0,
			"byteLength":43912,
			"byteOffset":131736,
			"target":34962
		},
		{
			"buffer":0,
			"byteLength":32388,
			"byteOffset":175648,
			"target":34963
		},
		{
			"buffer":0,
			"byteLength":432,
			"byteOffset":208036,
			"target":34962
		},
		{
			"buffer":0,
			"byteLength":432,
			"byteOffset":208468,
			"target":34962
		},
		{
			"buffer":0,
			"byteLength":288,
			"byteOffset":208900,
			"target":34962
		},
		{
			"buffer":0,
			"byteLength":204,
			"byteOffset":209188,
			"target":34963
		},
		{
			"buffer":0,
			"byteLength":804,
			"byteOffset":209392,
			"target":34962
		},
		{
			"buffer":0,
			"byteLength":804,
			"byteOffset":210196,
			"target":34962
		},
		{
			"buffer":0,
			"byteLength":536,
			"byteOffset":211000,
			"target":34962
		},
		{
			"buffer":0,
			"byteLength":348,
			"byteOffset":211536,
			"target":34963
		},
		{
			"buffer":0,
			"byteLength":708,
			"byteOffset":211884,
			"target":34962
		},
		{
			"buffer":0,
			"byteLength":708,
			"byteOffset":212592,
			"target":34962
		},
		{
			"buffer":0,
			"byteLength":472,
			"byteOffset":213300,
			"target":34962
		},
		{
			"buffer":0,
			"byteLength":342,
			"byteOffset":213772,
			"target":34963
		},
		{
			"buffer":0,
			"byteLength":1620,
			"byteOffset":214116,
			"target":34962
		},
		{
			"buffer":0,
			"byteLength":1620,
			"byteOffset":215736,
			"target":34962
		},
		{
			"buffer":0,
			"byteLength":1080,
			"byteOffset":217356,
			"target":34962
		},
		{
			"buffer":0,
			"byteLength":780,
			"byteOffset":218436,
			"target":34963
		},
		{
			"buffer":0,
			"byteLength":44,
			"byteOffset":219216
		},
		{
			"buffer":0,
			"byteLength":132,
			"byteOffset":219260
		},
		{
			"buffer":0,
			"byteLength":8,
			"byteOffset":219392
		},
		{
			"buffer":0,
			"byteLength":32,
			"byteOffset":219400
		}
	],
	"buffers":[
		{
			"byteLength":219432,
			"uri":"data:application/octet-stream;base64,"
		}
	]
}
