{
	"asset":{
		"generator":"Khronos glTF Blender I/O v3.5.30",
		"version":"2.0"
	},
	"scene":0,
	"scenes":[
		{
			"name":"Scene",
			"nodes":[
				0,
				1,
				2,
				3,
				4
			]
		}
	],
	"nodes":[
		{
			"mesh":0,
			"name":"Green",
			"scale":[
				1.8590495586395264,
				1.8590495586395264,
				1.8590495586395264
			],
			"translation":[
				0,
				-0.024189919233322144,
				0
			]
		},
		{
			"mesh":1,
			"name":"Main",
			"scale":[
				1.8590495586395264,
				1.8590495586395264,
				1.8590495586395264
			],
			"translation":[
				0,
				0.002815438434481621,
				0
			]
		},
		{
			"mesh":2,
			"name":"Stem1",
			"scale":[
				1.8590495586395264,
				1.8590495586395264,
				1.8590495586395264
			],
			"translation":[
				0,
				0.031898133456707,
				0
			]
		},
		{
			"mesh":3,
			"name":"Bulb2",
			"scale":[
				1.8590495586395264,
				1.8590495586395264,
				1.8590495586395264
			],
			"translation":[
				0,
				0.06513549387454987,
				0
			]
		},
		{
			"mesh":4,
			"name":"Bulb1",
			"scale":[
				1.8590495586395264,
				1.8590495586395264,
				1.8590495586395264
			],
			"translation":[
				0,
				0.06513549387454987,
				0
			]
		}
	],
	"materials":[
		{
			"doubleSided":true,
			"name":"SVGMat",
			"pbrMetallicRoughness":{
				"baseColorFactor":[
					0,
					0,
					0,
					1
				],
				"metallicFactor":0,
				"roughnessFactor":0.4000000059604645
			}
		},
		{
			"doubleSided":true,
			"name":"Material.005",
			"pbrMetallicRoughness":{
				"baseColorTexture":{
					"index":0
				},
				"metallicFactor":0,
				"roughnessFactor":0.5
			}
		},
		{
			"doubleSided":true,
			"name":"Material.004",
			"pbrMetallicRoughness":{
				"baseColorTexture":{
					"index":1
				},
				"metallicFactor":0,
				"roughnessFactor":0.5
			}
		},
		{
			"doubleSided":true,
			"name":"Material.003",
			"pbrMetallicRoughness":{
				"baseColorTexture":{
					"index":2
				},
				"metallicFactor":0,
				"roughnessFactor":0.5
			}
		},
		{
			"doubleSided":true,
			"name":"Material.002",
			"pbrMetallicRoughness":{
				"baseColorTexture":{
					"index":3
				},
				"metallicFactor":0,
				"roughnessFactor":0.5
			}
		},
		{
			"doubleSided":true,
			"name":"Material.001",
			"pbrMetallicRoughness":{
				"baseColorTexture":{
					"index":4
				},
				"metallicFactor":0,
				"roughnessFactor":0.5
			}
		}
	],
	"meshes":[
		{
			"name":"Curve",
			"primitives":[
				{
					"attributes":{
						"POSITION":0,
						"TEXCOORD_0":1,
						"NORMAL":2
					},
					"indices":3,
					"material":0
				},
				{
					"attributes":{
						"POSITION":4,
						"TEXCOORD_0":5,
						"NORMAL":6
					},
					"indices":7,
					"material":1
				}
			]
		},
		{
			"name":"Curve.001",
			"primitives":[
				{
					"attributes":{
						"POSITION":8,
						"TEXCOORD_0":9,
						"NORMAL":10
					},
					"indices":11,
					"material":0
				},
				{
					"attributes":{
						"POSITION":12,
						"TEXCOORD_0":13,
						"NORMAL":14
					},
					"indices":15,
					"material":2
				}
			]
		},
		{
			"name":"Curve.003",
			"primitives":[
				{
					"attributes":{
						"POSITION":16,
						"TEXCOORD_0":17,
						"NORMAL":18
					},
					"indices":19,
					"material":0
				},
				{
					"attributes":{
						"POSITION":20,
						"TEXCOORD_0":21,
						"NORMAL":22
					},
					"indices":23,
					"material":3
				}
			]
		},
		{
			"name":"Curve.005",
			"primitives":[
				{
					"attributes":{
						"POSITION":24,
						"TEXCOORD_0":25,
						"NORMAL":26
					},
					"indices":27,
					"material":0
				},
				{
					"attributes":{
						"POSITION":28,
						"TEXCOORD_0":29,
						"NORMAL":30
					},
					"indices":31,
					"material":4
				}
			]
		},
		{
			"name":"Curve.006",
			"primitives":[
				{
					"attributes":{
						"POSITION":32,
						"TEXCOORD_0":33,
						"NORMAL":34
					},
					"indices":35,
					"material":0
				},
				{
					"attributes":{
						"POSITION":36,
						"TEXCOORD_0":37,
						"NORMAL":38
					},
					"indices":39,
					"material":5
				}
			]
		}
	],
	"textures":[
		{
			"sampler":0,
			"source":0
		},
		{
			"sampler":0,
			"source":1
		},
		{
			"sampler":0,
			"source":2
		},
		{
			"sampler":0,
			"source":3
		},
		{
			"sampler":0,
			"source":4
		}
	],
	"images":[
		{
			"mimeType":"image/png",
			"name":"Alt003_BD001_Flower_Shapes_FaceImages_1",
			"uri":"Alt003_BD001_Flower_Shapes_FaceImages_1.png"
		},
		{
			"mimeType":"image/png",
			"name":"Alt003_BD001_Flower_Shapes_FaceImages_2",
			"uri":"Alt003_BD001_Flower_Shapes_FaceImages_2.png"
		},
		{
			"mimeType":"image/png",
			"name":"Alt003_BD001_Flower_Shapes_FaceImages_3",
			"uri":"Alt003_BD001_Flower_Shapes_FaceImages_3.png"
		},
		{
			"mimeType":"image/png",
			"name":"Alt003_BD001_Flower_Shapes_FaceImages_4",
			"uri":"Alt003_BD001_Flower_Shapes_FaceImages_4.png"
		},
		{
			"mimeType":"image/png",
			"name":"Alt003_BD001_Flower_Shapes_FaceImages_5",
			"uri":"Alt003_BD001_Flower_Shapes_FaceImages_5.png"
		}
	],
	"accessors":[
		{
			"bufferView":0,
			"componentType":5126,
			"count":126,
			"max":[
				0.169503316283226,
				0.012500000186264515,
				-0.032012321054935455
			],
			"min":[
				0.04488836228847504,
				0,
				-0.0823226273059845
			],
			"type":"VEC3"
		},
		{
			"bufferView":1,
			"componentType":5126,
			"count":126,
			"type":"VEC2"
		},
		{
			"bufferView":2,
			"componentType":5126,
			"count":126,
			"type":"VEC3"
		},
		{
			"bufferView":3,
			"componentType":5123,
			"count":222,
			"type":"SCALAR"
		},
		{
			"bufferView":4,
			"componentType":5126,
			"count":24,
			"max":[
				0.169503316283226,
				0.012500000186264515,
				-0.032012321054935455
			],
			"min":[
				0.04488836228847504,
				0.012500000186264515,
				-0.0823226273059845
			],
			"type":"VEC3"
		},
		{
			"bufferView":5,
			"componentType":5126,
			"count":24,
			"type":"VEC2"
		},
		{
			"bufferView":6,
			"componentType":5126,
			"count":24,
			"type":"VEC3"
		},
		{
			"bufferView":7,
			"componentType":5123,
			"count":66,
			"type":"SCALAR"
		},
		{
			"bufferView":8,
			"componentType":5126,
			"count":875,
			"max":[
				0.5255926847457886,
				0.012500000186264515,
				-0.025651708245277405
			],
			"min":[
				0.029086416587233543,
				0,
				-0.5247429013252258
			],
			"type":"VEC3"
		},
		{
			"bufferView":9,
			"componentType":5126,
			"count":875,
			"type":"VEC2"
		},
		{
			"bufferView":10,
			"componentType":5126,
			"count":875,
			"type":"VEC3"
		},
		{
			"bufferView":11,
			"componentType":5123,
			"count":1605,
			"type":"SCALAR"
		},
		{
			"bufferView":12,
			"componentType":5126,
			"count":186,
			"max":[
				0.5255926847457886,
				0.012500000186264515,
				-0.025651708245277405
			],
			"min":[
				0.029086416587233543,
				0.012500000186264515,
				-0.5247429013252258
			],
			"type":"VEC3"
		},
		{
			"bufferView":13,
			"componentType":5126,
			"count":186,
			"type":"VEC2"
		},
		{
			"bufferView":14,
			"componentType":5126,
			"count":186,
			"type":"VEC3"
		},
		{
			"bufferView":15,
			"componentType":5123,
			"count":531,
			"type":"SCALAR"
		},
		{
			"bufferView":16,
			"componentType":5126,
			"count":305,
			"max":[
				0.4388391375541687,
				0.012500000186264515,
				-0.17591503262519836
			],
			"min":[
				0.29128751158714294,
				0,
				-0.43744000792503357
			],
			"type":"VEC3"
		},
		{
			"bufferView":17,
			"componentType":5126,
			"count":305,
			"type":"VEC2"
		},
		{
			"bufferView":18,
			"componentType":5126,
			"count":305,
			"type":"VEC3"
		},
		{
			"bufferView":19,
			"componentType":5123,
			"count":531,
			"type":"SCALAR"
		},
		{
			"bufferView":20,
			"componentType":5126,
			"count":61,
			"max":[
				0.4388391375541687,
				0.012500000186264515,
				-0.17591503262519836
			],
			"min":[
				0.29128751158714294,
				0.012500000186264515,
				-0.43744000792503357
			],
			"type":"VEC3"
		},
		{
			"bufferView":21,
			"componentType":5126,
			"count":61,
			"type":"VEC2"
		},
		{
			"bufferView":22,
			"componentType":5126,
			"count":61,
			"type":"VEC3"
		},
		{
			"bufferView":23,
			"componentType":5123,
			"count":165,
			"type":"SCALAR"
		},
		{
			"bufferView":24,
			"componentType":5126,
			"count":281,
			"max":[
				0.48842114210128784,
				0.012500000186264515,
				-0.28694605827331543
			],
			"min":[
				0.43377596139907837,
				0,
				-0.3670787513256073
			],
			"type":"VEC3"
		},
		{
			"bufferView":25,
			"componentType":5126,
			"count":281,
			"type":"VEC2"
		},
		{
			"bufferView":26,
			"componentType":5126,
			"count":281,
			"type":"VEC3"
		},
		{
			"bufferView":27,
			"componentType":5123,
			"count":534,
			"type":"SCALAR"
		},
		{
			"bufferView":28,
			"componentType":5126,
			"count":60,
			"max":[
				0.48842114210128784,
				0.012500000186264515,
				-0.28694605827331543
			],
			"min":[
				0.43377596139907837,
				0.012500000186264515,
				-0.3670787513256073
			],
			"type":"VEC3"
		},
		{
			"bufferView":29,
			"componentType":5126,
			"count":60,
			"type":"VEC2"
		},
		{
			"bufferView":30,
			"componentType":5126,
			"count":60,
			"type":"VEC3"
		},
		{
			"bufferView":31,
			"componentType":5123,
			"count":174,
			"type":"SCALAR"
		},
		{
			"bufferView":32,
			"componentType":5126,
			"count":240,
			"max":[
				0.4790772497653961,
				0.012500000186264515,
				-0.4274589717388153
			],
			"min":[
				0.3643900156021118,
				0,
				-0.4945869743824005
			],
			"type":"VEC3"
		},
		{
			"bufferView":33,
			"componentType":5126,
			"count":240,
			"type":"VEC2"
		},
		{
			"bufferView":34,
			"componentType":5126,
			"count":240,
			"type":"VEC3"
		},
		{
			"bufferView":35,
			"componentType":5123,
			"count":426,
			"type":"SCALAR"
		},
		{
			"bufferView":36,
			"componentType":5126,
			"count":48,
			"max":[
				0.4790772497653961,
				0.012500000186264515,
				-0.4274589717388153
			],
			"min":[
				0.3643900156021118,
				0.012500000186264515,
				-0.4945869743824005
			],
			"type":"VEC3"
		},
		{
			"bufferView":37,
			"componentType":5126,
			"count":48,
			"type":"VEC2"
		},
		{
			"bufferView":38,
			"componentType":5126,
			"count":48,
			"type":"VEC3"
		},
		{
			"bufferView":39,
			"componentType":5123,
			"count":138,
			"type":"SCALAR"
		}
	],
	"bufferViews":[
		{
			"buffer":0,
			"byteLength":1512,
			"byteOffset":0,
			"target":34962
		},
		{
			"buffer":0,
			"byteLength":1008,
			"byteOffset":1512,
			"target":34962
		},
		{
			"buffer":0,
			"byteLength":1512,
			"byteOffset":2520,
			"target":34962
		},
		{
			"buffer":0,
			"byteLength":444,
			"byteOffset":4032,
			"target":34963
		},
		{
			"buffer":0,
			"byteLength":288,
			"byteOffset":4476,
			"target":34962
		},
		{
			"buffer":0,
			"byteLength":192,
			"byteOffset":4764,
			"target":34962
		},
		{
			"buffer":0,
			"byteLength":288,
			"byteOffset":4956,
			"target":34962
		},
		{
			"buffer":0,
			"byteLength":132,
			"byteOffset":5244,
			"target":34963
		},
		{
			"buffer":0,
			"byteLength":10500,
			"byteOffset":5376,
			"target":34962
		},
		{
			"buffer":0,
			"byteLength":7000,
			"byteOffset":15876,
			"target":34962
		},
		{
			"buffer":0,
			"byteLength":10500,
			"byteOffset":22876,
			"target":34962
		},
		{
			"buffer":0,
			"byteLength":3210,
			"byteOffset":33376,
			"target":34963
		},
		{
			"buffer":0,
			"byteLength":2232,
			"byteOffset":36588,
			"target":34962
		},
		{
			"buffer":0,
			"byteLength":1488,
			"byteOffset":38820,
			"target":34962
		},
		{
			"buffer":0,
			"byteLength":2232,
			"byteOffset":40308,
			"target":34962
		},
		{
			"buffer":0,
			"byteLength":1062,
			"byteOffset":42540,
			"target":34963
		},
		{
			"buffer":0,
			"byteLength":3660,
			"byteOffset":43604,
			"target":34962
		},
		{
			"buffer":0,
			"byteLength":2440,
			"byteOffset":47264,
			"target":34962
		},
		{
			"buffer":0,
			"byteLength":3660,
			"byteOffset":49704,
			"target":34962
		},
		{
			"buffer":0,
			"byteLength":1062,
			"byteOffset":53364,
			"target":34963
		},
		{
			"buffer":0,
			"byteLength":732,
			"byteOffset":54428,
			"target":34962
		},
		{
			"buffer":0,
			"byteLength":488,
			"byteOffset":55160,
			"target":34962
		},
		{
			"buffer":0,
			"byteLength":732,
			"byteOffset":55648,
			"target":34962
		},
		{
			"buffer":0,
			"byteLength":330,
			"byteOffset":56380,
			"target":34963
		},
		{
			"buffer":0,
			"byteLength":3372,
			"byteOffset":56712,
			"target":34962
		},
		{
			"buffer":0,
			"byteLength":2248,
			"byteOffset":60084,
			"target":34962
		},
		{
			"buffer":0,
			"byteLength":3372,
			"byteOffset":62332,
			"target":34962
		},
		{
			"buffer":0,
			"byteLength":1068,
			"byteOffset":65704,
			"target":34963
		},
		{
			"buffer":0,
			"byteLength":720,
			"byteOffset":66772,
			"target":34962
		},
		{
			"buffer":0,
			"byteLength":480,
			"byteOffset":67492,
			"target":34962
		},
		{
			"buffer":0,
			"byteLength":720,
			"byteOffset":67972,
			"target":34962
		},
		{
			"buffer":0,
			"byteLength":348,
			"byteOffset":68692,
			"target":34963
		},
		{
			"buffer":0,
			"byteLength":2880,
			"byteOffset":69040,
			"target":34962
		},
		{
			"buffer":0,
			"byteLength":1920,
			"byteOffset":71920,
			"target":34962
		},
		{
			"buffer":0,
			"byteLength":2880,
			"byteOffset":73840,
			"target":34962
		},
		{
			"buffer":0,
			"byteLength":852,
			"byteOffset":76720,
			"target":34963
		},
		{
			"buffer":0,
			"byteLength":576,
			"byteOffset":77572,
			"target":34962
		},
		{
			"buffer":0,
			"byteLength":384,
			"byteOffset":78148,
			"target":34962
		},
		{
			"buffer":0,
			"byteLength":576,
			"byteOffset":78532,
			"target":34962
		},
		{
			"buffer":0,
			"byteLength":276,
			"byteOffset":79108,
			"target":34963
		}
	],
	"samplers":[
		{
			"magFilter":9729,
			"minFilter":9987
		}
	],
	"buffers":[
		{
			"byteLength":79384,
			"uri":"Alt003_BD001_Flower_ModelB.bin"
		}
	]
}
