{
	"asset":{
		"generator":"Khronos glTF Blender I/O v3.6.28",
		"version":"2.0"
	},
	"extensionsUsed":[
		"KHR_materials_transmission",
		"KHR_materials_ior"
	],
	"scene":0,
	"scenes":[
		{
			"name":"Scene",
			"nodes":[
				0
			]
		}
	],
	"nodes":[
		{
			"mesh":0,
			"name":"WaterBarrel",
			"rotation":[
				0,
				0.5262497663497925,
				0,
				0.8503300547599792
			],
			"scale":[
				1,
				0.30000001192092896,
				1
			],
			"translation":[
				5.5229573249816895,
				-0.2800271511077881,
				2.56954026222229
			]
		}
	],
	"animations":[
		{
			"channels":[
				{
					"sampler":0,
					"target":{
						"node":0,
						"path":"scale"
					}
				}
			],
			"name":"WaterIncrease",
			"samplers":[
				{
					"input":4,
					"interpolation":"LINEAR",
					"output":5
				}
			]
		}
	],
	"materials":[
		{
			"doubleSided":true,
			"extensions":{
				"KHR_materials_transmission":{
					"transmissionFactor":1
				},
				"KHR_materials_ior":{
					"ior":1.3329999446868896
				}
			},
			"name":"Water",
			"pbrMetallicRoughness":{
				"baseColorFactor":[
					0.24986477196216583,
					0.6259680390357971,
					0.8000000715255737,
					1
				],
				"metallicFactor":0,
				"roughnessFactor":0
			}
		}
	],
	"meshes":[
		{
			"name":"Cylinder.001",
			"primitives":[
				{
					"attributes":{
						"POSITION":0,
						"NORMAL":1,
						"TEXCOORD_0":2
					},
					"indices":3,
					"material":0
				}
			]
		}
	],
	"accessors":[
		{
			"bufferView":0,
			"componentType":5126,
			"count":4619,
			"max":[
				2.0656120777130127,
				4.6357831954956055,
				2.065612554550171
			],
			"min":[
				-2.0656120777130127,
				0,
				-2.0656113624572754
			],
			"type":"VEC3"
		},
		{
			"bufferView":1,
			"componentType":5126,
			"count":4619,
			"type":"VEC3"
		},
		{
			"bufferView":2,
			"componentType":5126,
			"count":4619,
			"type":"VEC2"
		},
		{
			"bufferView":3,
			"componentType":5123,
			"count":24576,
			"type":"SCALAR"
		},
		{
			"bufferView":4,
			"componentType":5126,
			"count":271,
			"max":[
				11.25
			],
			"min":[
				0
			],
			"type":"SCALAR"
		},
		{
			"bufferView":5,
			"componentType":5126,
			"count":271,
			"type":"VEC3"
		}
	],
	"bufferViews":[
		{
			"buffer":0,
			"byteLength":55428,
			"byteOffset":0,
			"target":34962
		},
		{
			"buffer":0,
			"byteLength":55428,
			"byteOffset":55428,
			"target":34962
		},
		{
			"buffer":0,
			"byteLength":36952,
			"byteOffset":110856,
			"target":34962
		},
		{
			"buffer":0,
			"byteLength":49152,
			"byteOffset":147808,
			"target":34963
		},
		{
			"buffer":0,
			"byteLength":1084,
			"byteOffset":196960
		},
		{
			"buffer":0,
			"byteLength":3252,
			"byteOffset":198044
		}
	],
	"buffers":[
		{
			"byteLength":201296,
			"uri":"data:application/octet-stream;base64,"
		}
	]
}
